<svg width="114" height="83" viewBox="0 0 114 83" fill="none" xmlns="http://www.w3.org/2000/svg">
<path d="M26.3587 48V36.3636H28.4666V41.2898H33.8587V36.3636H35.9723V48H33.8587V43.0568H28.4666V48H26.3587ZM42.0376 48.1705C41.1626 48.1705 40.407 47.9886 39.7706 47.625C39.138 47.2576 38.6513 46.7386 38.3104 46.0682C37.9695 45.3939 37.799 44.6004 37.799 43.6875C37.799 42.7898 37.9695 42.0019 38.3104 41.3239C38.6551 40.642 39.1361 40.1117 39.7536 39.733C40.371 39.3504 41.0964 39.1591 41.9297 39.1591C42.4676 39.1591 42.9751 39.2462 43.4524 39.4205C43.9335 39.5909 44.3577 39.8561 44.7251 40.2159C45.0964 40.5758 45.388 41.0341 45.6001 41.5909C45.8123 42.1439 45.9183 42.803 45.9183 43.5682V44.1989H38.7649V42.8125H43.9467C43.9429 42.4186 43.8577 42.0682 43.6911 41.7614C43.5244 41.4508 43.2914 41.2064 42.9922 41.0284C42.6967 40.8504 42.352 40.7614 41.9581 40.7614C41.5376 40.7614 41.1683 40.8636 40.8501 41.0682C40.532 41.2689 40.2839 41.5341 40.1058 41.8636C39.9316 42.1894 39.8426 42.5473 39.8388 42.9375V44.1477C39.8388 44.6553 39.9316 45.0909 40.1172 45.4545C40.3028 45.8144 40.5623 46.0909 40.8956 46.2841C41.2289 46.4735 41.6191 46.5682 42.0661 46.5682C42.3653 46.5682 42.6361 46.5265 42.8786 46.4432C43.121 46.3561 43.3312 46.2292 43.5092 46.0625C43.6873 45.8958 43.8217 45.6894 43.9126 45.4432L45.8331 45.6591C45.7119 46.1667 45.4808 46.6098 45.1399 46.9886C44.8028 47.3636 44.371 47.6553 43.8445 47.8636C43.3179 48.0682 42.7157 48.1705 42.0376 48.1705ZM50.1697 48.1761C49.6167 48.1761 49.1186 48.0777 48.6754 47.8807C48.236 47.6799 47.8875 47.3845 47.63 46.9943C47.3762 46.6042 47.2493 46.1231 47.2493 45.5511C47.2493 45.0587 47.3402 44.6515 47.522 44.3295C47.7038 44.0076 47.9519 43.75 48.2663 43.5568C48.5807 43.3636 48.9349 43.2178 49.3288 43.1193C49.7266 43.017 50.1375 42.9432 50.5618 42.8977C51.0732 42.8447 51.4879 42.7973 51.8061 42.7557C52.1243 42.7102 52.3554 42.642 52.4993 42.5511C52.647 42.4564 52.7209 42.3106 52.7209 42.1136V42.0795C52.7209 41.6515 52.594 41.3201 52.3402 41.0852C52.0864 40.8504 51.7209 40.733 51.2436 40.733C50.7398 40.733 50.3402 40.8428 50.0447 41.0625C49.7531 41.2822 49.5561 41.5417 49.4538 41.8409L47.5334 41.5682C47.6849 41.0379 47.9349 40.5947 48.2834 40.2386C48.6319 39.8788 49.058 39.6098 49.5618 39.4318C50.0656 39.25 50.6224 39.1591 51.2322 39.1591C51.6527 39.1591 52.0713 39.2083 52.4879 39.3068C52.9046 39.4053 53.2853 39.5682 53.63 39.7955C53.9747 40.0189 54.2512 40.3239 54.4595 40.7102C54.6716 41.0966 54.7777 41.5795 54.7777 42.1591V48H52.8004V46.8011H52.7322C52.6072 47.0436 52.4311 47.2708 52.2038 47.483C51.9804 47.6913 51.6982 47.8598 51.3572 47.9886C51.0201 48.1136 50.6243 48.1761 50.1697 48.1761ZM50.7038 46.6648C51.1167 46.6648 51.4747 46.5833 51.7777 46.4205C52.0807 46.2538 52.3137 46.0341 52.4766 45.7614C52.6432 45.4886 52.7266 45.1913 52.7266 44.8693V43.8409C52.6622 43.8939 52.5523 43.9432 52.397 43.9886C52.2455 44.0341 52.075 44.0739 51.8857 44.108C51.6963 44.142 51.5088 44.1723 51.3232 44.1989C51.1375 44.2254 50.9766 44.2481 50.8402 44.267C50.5334 44.3087 50.2588 44.3769 50.0163 44.4716C49.7739 44.5663 49.5826 44.6989 49.4425 44.8693C49.3023 45.036 49.2322 45.2519 49.2322 45.517C49.2322 45.8958 49.3705 46.1818 49.647 46.375C49.9235 46.5682 50.2758 46.6648 50.7038 46.6648ZM60.0845 48.1534C59.3989 48.1534 58.7853 47.9773 58.2436 47.625C57.7019 47.2727 57.2739 46.7614 56.9595 46.0909C56.6451 45.4205 56.4879 44.6061 56.4879 43.6477C56.4879 42.678 56.647 41.8598 56.9652 41.1932C57.2872 40.5227 57.7209 40.017 58.2663 39.6761C58.8118 39.3314 59.4197 39.1591 60.0902 39.1591C60.6016 39.1591 61.022 39.2462 61.3516 39.4205C61.6811 39.5909 61.9425 39.7973 62.1357 40.0398C62.3288 40.2784 62.4785 40.5038 62.5845 40.7159H62.6697V36.3636H64.7322V48H62.7095V46.625H62.5845C62.4785 46.8371 62.325 47.0625 62.1243 47.3011C61.9235 47.536 61.6584 47.7367 61.3288 47.9034C60.9993 48.0701 60.5845 48.1534 60.0845 48.1534ZM60.6584 46.4659C61.094 46.4659 61.4652 46.3485 61.772 46.1136C62.0788 45.875 62.3118 45.5436 62.4709 45.1193C62.63 44.6951 62.7095 44.2008 62.7095 43.6364C62.7095 43.072 62.63 42.5814 62.4709 42.1648C62.3156 41.7481 62.0845 41.4242 61.7777 41.1932C61.4747 40.9621 61.1016 40.8466 60.6584 40.8466C60.2 40.8466 59.8175 40.9659 59.5107 41.2045C59.2038 41.4432 58.9728 41.7727 58.8175 42.1932C58.6622 42.6136 58.5845 43.0947 58.5845 43.6364C58.5845 44.1818 58.6622 44.6686 58.8175 45.0966C58.9766 45.5208 59.2095 45.8561 59.5163 46.1023C59.8269 46.3447 60.2076 46.4659 60.6584 46.4659ZM66.924 48V39.2727H68.9808V48H66.924ZM67.9581 38.0341C67.6323 38.0341 67.352 37.9261 67.1172 37.7102C66.8823 37.4905 66.7649 37.2273 66.7649 36.9205C66.7649 36.6098 66.8823 36.3466 67.1172 36.1307C67.352 35.911 67.6323 35.8011 67.9581 35.8011C68.2876 35.8011 68.5679 35.911 68.799 36.1307C69.0339 36.3466 69.1513 36.6098 69.1513 36.9205C69.1513 37.2273 69.0339 37.4905 68.799 37.7102C68.5679 37.9261 68.2876 38.0341 67.9581 38.0341ZM73.1527 42.8864V48H71.0959V39.2727H73.0618V40.7557H73.1641C73.3648 40.267 73.6849 39.8788 74.1243 39.5909C74.5675 39.303 75.1148 39.1591 75.7663 39.1591C76.3686 39.1591 76.8932 39.2879 77.3402 39.5455C77.791 39.803 78.1394 40.1761 78.3857 40.6648C78.6357 41.1534 78.7588 41.7462 78.755 42.4432V48H76.6982V42.7614C76.6982 42.178 76.5466 41.7216 76.2436 41.392C75.9444 41.0625 75.5296 40.8977 74.9993 40.8977C74.6394 40.8977 74.3194 40.9773 74.0391 41.1364C73.7625 41.2917 73.5447 41.517 73.3857 41.8125C73.2304 42.108 73.1527 42.4659 73.1527 42.8864ZM84.6413 51.4545C83.9027 51.4545 83.2682 51.3542 82.7379 51.1534C82.2076 50.9564 81.7815 50.6913 81.4595 50.358C81.1375 50.0246 80.9141 49.6553 80.7891 49.25L82.6413 48.8011C82.7247 48.9716 82.8459 49.1402 83.005 49.3068C83.1641 49.4773 83.3781 49.6174 83.647 49.7273C83.9197 49.8409 84.2625 49.8977 84.6754 49.8977C85.2588 49.8977 85.7417 49.7557 86.1243 49.4716C86.5069 49.1913 86.6982 48.7292 86.6982 48.0852V46.4318H86.5959C86.4898 46.6439 86.3345 46.8617 86.13 47.0852C85.9292 47.3087 85.6622 47.4962 85.3288 47.6477C84.9993 47.7992 84.5845 47.875 84.0845 47.875C83.4141 47.875 82.8061 47.7178 82.2607 47.4034C81.719 47.0852 81.2872 46.6117 80.9652 45.983C80.647 45.3504 80.4879 44.5587 80.4879 43.608C80.4879 42.6496 80.647 41.8409 80.9652 41.1818C81.2872 40.5189 81.7209 40.017 82.2663 39.6761C82.8118 39.3314 83.4197 39.1591 84.0902 39.1591C84.6016 39.1591 85.022 39.2462 85.3516 39.4205C85.6849 39.5909 85.95 39.7973 86.147 40.0398C86.344 40.2784 86.4936 40.5038 86.5959 40.7159H86.7095V39.2727H88.7379V48.142C88.7379 48.8883 88.5599 49.5057 88.2038 49.9943C87.8478 50.483 87.361 50.8485 86.7436 51.0909C86.1262 51.3333 85.4254 51.4545 84.6413 51.4545ZM84.6584 46.2614C85.094 46.2614 85.4652 46.1553 85.772 45.9432C86.0788 45.7311 86.3118 45.4261 86.4709 45.0284C86.63 44.6307 86.7095 44.1534 86.7095 43.5966C86.7095 43.0473 86.63 42.5663 86.4709 42.1534C86.3156 41.7405 86.0845 41.4205 85.7777 41.1932C85.4747 40.9621 85.1016 40.8466 84.6584 40.8466C84.2 40.8466 83.8175 40.9659 83.5107 41.2045C83.2038 41.4432 82.9728 41.7708 82.8175 42.1875C82.6622 42.6004 82.5845 43.0701 82.5845 43.5966C82.5845 44.1307 82.6622 44.5985 82.8175 45C82.9766 45.3977 83.2095 45.7083 83.5163 45.9318C83.8269 46.1515 84.2076 46.2614 84.6584 46.2614Z" fill="#BCC0C1"/>
</svg>
