<svg width="78" height="48" viewBox="0 0 78 48" fill="none" xmlns="http://www.w3.org/2000/svg">
<path d="M37.4782 12.6806C37.9572 11.2065 40.0427 11.2065 40.5216 12.6806L42.2329 17.9474C42.4472 18.6067 43.0614 19.053 43.7547 19.053H49.2926C50.8425 19.053 51.487 21.0364 50.2331 21.9474L45.7528 25.2026C45.192 25.6099 44.9572 26.3322 45.1715 26.9914L46.8828 32.2582C47.3617 33.7323 45.6747 34.9582 44.4206 34.0472L39.9404 30.792C39.3796 30.3846 38.6203 30.3846 38.0595 30.792L33.5792 34.0472C32.3253 34.9582 30.6381 33.7323 31.1171 32.2582L32.8284 26.9914C33.0426 26.3322 32.8079 25.6099 32.2471 25.2026L27.7669 21.9474C26.5129 21.0364 27.1574 19.053 28.7073 19.053H34.2452C34.9384 19.053 35.5527 18.6067 35.7669 17.9474L37.4782 12.6806Z" fill="#A0A5A7"/>
</svg>
