<svg width="114" height="83" viewBox="0 0 114 83" fill="none" xmlns="http://www.w3.org/2000/svg">
<path d="M42.0071 37.6136V36.3636H50.7344V37.6136H47.0753V48H45.6662V37.6136H42.0071ZM55.1207 48.1818C54.2798 48.1818 53.5545 47.9962 52.9446 47.625C52.3385 47.25 51.8707 46.7273 51.5412 46.0568C51.2154 45.3826 51.0526 44.5985 51.0526 43.7045C51.0526 42.8106 51.2154 42.0227 51.5412 41.3409C51.8707 40.6553 52.3291 40.1212 52.9162 39.7386C53.5071 39.3523 54.1965 39.1591 54.9844 39.1591C55.4389 39.1591 55.8878 39.2348 56.331 39.3864C56.7741 39.5379 57.1776 39.7841 57.5412 40.125C57.9048 40.4621 58.1946 40.9091 58.4105 41.4659C58.6264 42.0227 58.7344 42.7083 58.7344 43.5227V44.0909H52.0071V42.9318H57.3707C57.3707 42.4394 57.2723 42 57.0753 41.6136C56.8821 41.2273 56.6056 40.9223 56.2457 40.6989C55.8897 40.4754 55.4692 40.3636 54.9844 40.3636C54.4503 40.3636 53.9882 40.4962 53.598 40.7614C53.2116 41.0227 52.9143 41.3636 52.706 41.7841C52.4976 42.2045 52.3935 42.6553 52.3935 43.1364V43.9091C52.3935 44.5682 52.5071 45.1269 52.7344 45.5852C52.9654 46.0398 53.2855 46.3864 53.6946 46.625C54.1037 46.8598 54.5791 46.9773 55.1207 46.9773C55.473 46.9773 55.7912 46.928 56.0753 46.8295C56.3632 46.7273 56.6113 46.5758 56.8196 46.375C57.0279 46.1705 57.1889 45.9167 57.3026 45.6136L58.598 45.9773C58.4616 46.4167 58.2325 46.803 57.9105 47.1364C57.5885 47.4659 57.1908 47.7235 56.7173 47.9091C56.2438 48.0909 55.7116 48.1818 55.1207 48.1818ZM61.5398 39.2727L63.6307 42.8409L65.7216 39.2727H67.267L64.4489 43.6364L67.267 48H65.7216L63.6307 44.6136L61.5398 48H59.9943L62.767 43.6364L59.9943 39.2727H61.5398ZM72.9759 39.2727V40.4091H68.4531V39.2727H72.9759ZM69.7713 37.1818H71.1122V45.5C71.1122 45.8788 71.1671 46.1629 71.277 46.3523C71.3906 46.5379 71.5346 46.6629 71.7088 46.7273C71.8868 46.7879 72.0743 46.8182 72.2713 46.8182C72.419 46.8182 72.5402 46.8106 72.6349 46.7955C72.7296 46.7765 72.8054 46.7614 72.8622 46.75L73.1349 47.9545C73.044 47.9886 72.9171 48.0227 72.7543 48.0568C72.5914 48.0947 72.3849 48.1136 72.1349 48.1136C71.7562 48.1136 71.3849 48.0322 71.0213 47.8693C70.6615 47.7064 70.3622 47.4583 70.1236 47.125C69.8887 46.7917 69.7713 46.3712 69.7713 45.8636V37.1818Z" fill="#BCC0C1"/>
</svg>
