<svg width="78" height="48" viewBox="0 0 78 48" fill="none" xmlns="http://www.w3.org/2000/svg">
<path fill-rule="evenodd" clip-rule="evenodd" d="M29.3997 12.7999C27.6324 12.7999 26.1997 14.2326 26.1997 16V32.0001C26.1997 33.7674 27.6324 35.2001 29.3997 35.2001H48.5999C50.3673 35.2001 51.7999 33.7674 51.7999 32.0001V16C51.7999 14.2326 50.3673 12.7999 48.5999 12.7999H29.3997ZM34.1998 16H43.7998V22.4H34.1998V16ZM46.9999 28.8V32.0001H48.5999V28.8H46.9999ZM43.7998 25.6H34.1998V32.0001H43.7998V25.6ZM46.9999 25.6H48.5999V22.4H46.9999V25.6ZM48.5999 19.2V16H46.9999V19.2H48.5999ZM30.9997 16V19.2H29.3997V16H30.9997ZM30.9997 22.4H29.3997V25.6H30.9997V22.4ZM29.3997 28.8H30.9997V32.0001H29.3997V28.8Z" fill="#A0A5A7"/>
</svg>
